<svg width="16" height="16" viewBox="0 0 16 16" fill="none" xmlns="http://www.w3.org/2000/svg">
<path fill-rule="evenodd" clip-rule="evenodd" d="M8 16C12.4183 16 16 12.4183 16 8C16 3.58172 12.4183 0 8 0C3.58172 0 0 3.58172 0 8C0 12.4183 3.58172 16 8 16ZM4.73115 6.77938C4.97918 6.54685 5.36516 6.54685 5.61319 6.77938L8.0006 9.01757L10.388 6.77938C10.636 6.54685 11.022 6.54685 11.27 6.77938C11.5418 7.03414 11.5418 7.46548 11.27 7.72023L8.44162 10.3719C8.22459 10.5753 7.90195 10.6008 7.65851 10.4482C7.62374 10.4264 7.59058 10.4009 7.55957 10.3719L7.55945 10.3718L4.73115 7.72023C4.45941 7.46548 4.45941 7.03414 4.73115 6.77938Z" fill="white"/>
</svg>
