<svg width="20" height="20" viewBox="0 0 20 20" fill="none" xmlns="http://www.w3.org/2000/svg">
<path d="M14.1667 10.8363H10.8334V14.1696H9.16669V10.8363H5.83335V9.1696H9.16669V5.83627H10.8334V9.1696H14.1667V10.8363ZM10 1.6696C8.90567 1.6696 7.82204 1.88515 6.81099 2.30394C5.79994 2.72273 4.88129 3.33656 4.10746 4.11038C2.54466 5.67318 1.66669 7.7928 1.66669 10.0029C1.66669 12.2131 2.54466 14.3327 4.10746 15.8955C4.88129 16.6693 5.79994 17.2831 6.81099 17.7019C7.82204 18.1207 8.90567 18.3363 10 18.3363C12.2102 18.3363 14.3298 17.4583 15.8926 15.8955C17.4554 14.3327 18.3334 12.2131 18.3334 10.0029C18.3334 8.90859 18.1178 7.82495 17.699 6.81391C17.2802 5.80286 16.6664 4.8842 15.8926 4.11038C15.1188 3.33656 14.2001 2.72273 13.189 2.30394C12.178 1.88515 11.0944 1.6696 10 1.6696Z" fill="white"/>
</svg>
