<svg width="40" height="40" viewBox="0 0 40 40" fill="none" xmlns="http://www.w3.org/2000/svg">
<path d="M3.33341 20C3.33341 15.5797 5.08936 11.3405 8.21497 8.21491C11.3406 5.0893 15.5798 3.33335 20.0001 3.33335C22.1888 3.33335 24.356 3.76445 26.3781 4.60202C28.4002 5.4396 30.2376 6.66726 31.7852 8.21491C34.9108 11.3405 36.6667 15.5797 36.6667 20C36.6667 24.4203 34.9108 28.6595 31.7852 31.7851C28.6596 34.9107 24.4204 36.6667 20.0001 36.6667C17.8114 36.6667 15.6441 36.2356 13.622 35.398C11.5999 34.5604 9.76261 33.3328 8.21497 31.7851C6.66732 30.2375 5.43966 28.4002 4.60209 26.3781C3.76451 24.356 3.33341 22.1887 3.33341 20ZM16.6667 28.3334L25.0001 20L16.6667 11.6667L16.6667 28.3334Z" fill="#53B175"/>
</svg>
