<svg width="200" height="106" viewBox="0 0 200 106" fill="none" xmlns="http://www.w3.org/2000/svg">
<path d="M10.83 85.2753L113.42 144.45L181.75 104.465L79.42 45.3853L10.83 85.2753Z" fill="#4E508B"/>
<path opacity="0.69" d="M128.37 92.3801L78.0001 122.635L29.0651 93.8552L76.9151 64.8401" fill="url(#paint0_linear)"/>
<path d="M108.725 76.7199V99.1599H110.41L110.775 76.1399" fill="#808080"/>
<path d="M118.315 68.085L121.69 92.485H120.005L116.475 68.99" fill="#808080"/>
<path d="M84.255 85.1501C84.255 85.1501 82.685 90.2251 82.335 90.7401C81.985 91.2551 76.835 94.6101 76.92 95.6451C77.005 96.6801 78.95 97.1051 80.165 97.0201C81.38 96.9351 88.365 94.0651 88.8 93.2201C89.235 92.3751 89.235 85.1501 89.235 85.1501H84.255Z" fill="#5C2D1D"/>
<path d="M92.5401 91.0901C92.5401 91.0901 90.9701 96.1652 90.6201 96.6802C90.2701 97.1952 85.1201 100.55 85.2051 101.585C85.2901 102.62 87.2351 103.045 88.4501 102.96C89.6651 102.875 96.6501 100.005 97.0851 99.1602C97.5201 98.3152 97.5201 91.0901 97.5201 91.0901H92.5401Z" fill="#5C2D1D"/>
<path d="M119.23 44.8899C118.785 46.1249 116.255 64.8398 116.255 64.8398L113.72 63.9998L117.03 44.7849" fill="#808080"/>
<path d="M118.315 68.0852L118.36 65.0702L115.65 65.9852L116.475 68.9902" fill="#A9CBF8"/>
<path d="M112.19 63.42C112.19 63.42 119 66 118.315 68.5C117.63 71 112.205 77.2301 108.725 76.6951C105.245 76.1601 101 73.195 101 73.195" fill="#4A42A4"/>
<path d="M112.19 60.3401C112.19 60.3401 118.995 62.9101 118.315 65.4451C117.635 67.9802 112.205 74.1752 108.725 73.6402C105.245 73.1052 101 70.1402 101 70.1402" fill="#A6ACED"/>
<path d="M114.885 36.8401C114.885 36.8401 121.455 38.4551 122.125 42.1801C122.795 45.9052 122.985 52.7802 113.65 50.1102C104.315 47.4402 108.725 40.5351 108.725 40.5351" fill="#A6ACED"/>
<path d="M106.115 44.79C106.115 44.79 108.435 54.395 106.715 59.535C104.995 64.675 95.2149 68.795 95.2149 68.795L91.0949 89.47C85.6199 91.165 80.9149 88.285 80.9149 88.285C80.9149 88.285 82.0549 70.04 83.7899 65.41C85.5249 60.78 98.9799 51.685 98.9799 51.685" fill="#895851"/>
<path d="M106.5 57.0002C106.5 57.0002 93.0449 66.0952 91.3099 70.7252C89.5749 75.3552 88.4349 93.6002 88.4349 93.6002C88.4349 93.6002 93.1399 96.4802 98.6149 94.7852L102.735 74.1102C102.735 74.1102 109.735 72.1402 111.45 67.0002C113.165 61.8602 112.45 54.0502 112.45 54.0502" fill="#895851"/>
<path d="M111.855 57.1951C114.15 51.6951 115.145 37.4051 113.72 35.6951C110.775 32.1251 104.565 32.5601 104.565 32.5601C104.565 32.5601 100.955 30.4351 97.94 32.9501C95.69 34.8251 97.29 46.3301 97.94 53.6401C101.87 57.2001 106.215 58.2001 111.855 57.1951Z" fill="#68E1FD"/>
<path d="M102.21 58.8402C99.7899 61.2202 97.2099 63.5152 94.9399 66.0502C92.9849 68.2552 92.2149 71.0502 91.4399 73.8252C89.6699 80.2802 88.8799 86.9452 88.0949 93.5702C88.0449 93.9702 88.6849 93.9702 88.7349 93.5702C89.4899 87.1952 90.2349 80.7902 91.8999 74.5702C92.7099 71.5202 93.5149 68.4852 95.7349 66.1102C97.9549 63.7352 100.345 61.5502 102.645 59.2852C102.955 59.0002 102.5 58.5502 102.21 58.8402Z" fill="#5C2D1D"/>
<path d="M128.77 74.6099L130.02 73.9348L72.595 41.5349L35.24 62.4049L35.74 62.6949V90.2349C35.74 90.3091 35.7695 90.3803 35.822 90.4328C35.8745 90.4854 35.9457 90.5149 36.02 90.5149C36.0942 90.5149 36.1655 90.4854 36.218 90.4328C36.2705 90.3803 36.3 90.3091 36.3 90.2349V62.9999L91.55 94.7999L91.685 94.7299V114.565C91.685 114.639 91.7145 114.71 91.767 114.763C91.8195 114.815 91.8907 114.845 91.965 114.845C92.0393 114.845 92.1105 114.815 92.163 114.763C92.2155 114.71 92.245 114.639 92.245 114.565V94.4249L128.38 74.8248V92.3549C128.38 92.4291 128.409 92.5003 128.462 92.5528C128.515 92.6053 128.586 92.6349 128.66 92.6349C128.734 92.6349 128.805 92.6053 128.858 92.5528C128.91 92.5003 128.94 92.4291 128.94 92.3549V74.8498C128.941 74.7968 128.926 74.7448 128.895 74.7015C128.864 74.6582 128.82 74.6261 128.77 74.6099Z" fill="#68E1FD"/>
<path d="M128.77 74.6099L130.02 73.9348L72.595 41.5349L35.24 62.4049L35.74 62.6949V90.2349C35.74 90.3091 35.7695 90.3803 35.822 90.4328C35.8745 90.4854 35.9457 90.5149 36.02 90.5149C36.0942 90.5149 36.1655 90.4854 36.218 90.4328C36.2705 90.3803 36.3 90.3091 36.3 90.2349V62.9999L91.55 94.7999L91.685 94.7299V114.565C91.685 114.639 91.7145 114.71 91.767 114.763C91.8195 114.815 91.8907 114.845 91.965 114.845C92.0393 114.845 92.1105 114.815 92.163 114.763C92.2155 114.71 92.245 114.639 92.245 114.565V94.4249L128.38 74.8248V92.3549C128.38 92.4291 128.409 92.5003 128.462 92.5528C128.515 92.6053 128.586 92.6349 128.66 92.6349C128.734 92.6349 128.805 92.6053 128.858 92.5528C128.91 92.5003 128.94 92.4291 128.94 92.3549V74.8498C128.941 74.7968 128.926 74.7448 128.895 74.7015C128.864 74.6582 128.82 74.6261 128.77 74.6099Z" fill="#BC532A"/>
<path d="M25.075 47.3702L23.48 46.5602L25.265 44.8202L25.075 47.3702Z" fill="#D64338"/>
<path d="M47 12.4601L45.405 11.6501L44.78 13.7451L47 12.4601Z" fill="#D64338"/>
<path d="M45.405 11.6501L23.48 24.3101V46.5601L45.405 33.3951V11.6501Z" fill="#D64338"/>
<path d="M47.0001 12.46L25.0751 25.12V47.37L47.0001 34.205V12.46Z" fill="#FF6753"/>
<path d="M44.54 16.3801L27.535 26.1951V43.4551L44.54 33.2451V16.3801Z" fill="white"/>
<path d="M44.54 30.7001C44.54 30.7001 43.225 26.2001 41.45 27.5001C39.675 28.8001 41.12 33.6751 39.1 32.6701C37.08 31.6651 36.915 26.6051 34.445 27.5001C31.975 28.3951 33.5 33.2001 31.67 32.6251C29.84 32.0501 30.705 25.6251 27.53 26.2001V43.4551L44.53 33.2451L44.54 30.7001Z" fill="#68E1FD"/>
<path opacity="0.32" d="M71.1549 61.3853L53.1099 71.2853C56.1099 73.1603 68.2549 79.5903 71.1699 81.6152L89.8149 69.8603L86.7499 62.5003L71.1549 61.3853Z" fill="url(#paint1_linear)"/>
<path d="M86.0551 72.0148L99.1951 64.4799L82.0751 54.7849L68.6501 61.5898" fill="#B3B3B3"/>
<path d="M82.6549 57.145C82.6549 57.145 86.0999 72.205 86.0549 72.02C86.0099 71.835 69.0549 62.855 68.9249 62.52C68.7949 62.185 64.4249 46.92 64.4249 46.92L82.6549 57.145Z" fill="white"/>
<path d="M77.6949 54.3603L81.2299 52.2603L85.4499 55.7203L82.2749 57.0303L77.6949 54.3603Z" fill="#FFE0CE"/>
<path d="M79.6501 51.9749C79.6501 51.9749 84.3351 53.5999 83.9451 57.8749C83.9451 57.8749 91.2501 54.8749 92.8701 52.9749C94.4901 51.0749 97.9351 46.9349 97.9351 46.9349V32.9349C97.9351 32.9349 89.1001 46.4349 87.1851 48.0799C85.6551 49.3899 79.6501 51.9749 79.6501 51.9749Z" fill="#68E1FD"/>
<path d="M103.83 30.6353C103.83 31.8153 103.86 32.9903 103.795 34.1653C104.01 34.7053 104.295 35.0803 104.745 35.0353C106.17 34.8853 107.865 32.7853 107.865 32.7853L108.115 29.5103L103.83 30.6353Z" fill="#F9C7AF"/>
<path d="M110.765 22.4998C109.88 20.6148 108.125 20.2548 106.315 20.5998C105.9 20.3155 105.435 20.1119 104.945 19.9998C103.445 19.6448 101.55 20.1148 100.615 21.3748C100.124 21.3141 99.6253 21.3777 99.1651 21.5598C97.8051 22.1248 97.6401 23.5598 97.9551 24.8048C97.9693 24.854 97.986 24.9024 98.0051 24.9498C98.1501 27.1698 100.34 28.0948 100.34 28.0948L107.4 31.5648C108.162 31.1547 108.807 30.5577 109.275 29.8298C109.427 29.545 109.525 29.2349 109.565 28.9148C109.616 28.8726 109.663 28.8257 109.705 28.7748C111.09 27.0498 111.735 24.5748 110.765 22.4998Z" fill="#4C4C4C"/>
<path d="M100.17 26.3298C100.35 27.0698 101.62 34.1198 104.845 33.5298C108.07 32.9398 108.275 28.2448 108.275 28.2448C108.275 28.2448 105.35 27.4648 105.115 26.3848C104.88 25.3048 105 24.8298 103.565 24.5398C102.13 24.2498 99.87 25.0948 100.17 26.3298Z" fill="#FFE0CE"/>
<path d="M97.35 47.635L96.89 40.75L94.78 50.71L97.35 47.635Z" fill="#4C4C4C"/>
<path d="M97.595 59.3701C97.3145 59.4015 97.0419 59.4828 96.79 59.6101C96.025 59.9751 95.18 60.2201 94.42 60.6101C93.1608 61.3351 92.1301 62.3987 91.445 63.6801C91.29 64.0101 90.64 65.2151 90.975 65.5551C91.31 65.8951 92.075 65.5551 92.075 65.5551C92.075 65.5551 92.035 66.2451 92.28 66.4051C92.525 66.5651 93.28 66.0051 93.28 66.0051C93.28 66.0051 93.615 66.8501 94.08 66.6501C94.545 66.4501 95.37 65.2401 95.37 65.2401C95.37 65.2401 95.28 66.1651 95.69 66.1651C96.1 66.1651 97.835 63.8101 97.835 63.8101L101.51 61.9201C101.51 61.9201 100.425 60.7651 100.315 60.6601C99.8171 60.1722 99.2319 59.7821 98.59 59.5101C98.2739 59.3862 97.9331 59.3383 97.595 59.3701Z" fill="#FFE0CE"/>
<path d="M96.9649 62.4252C96.1356 63.3047 95.5108 64.3564 95.1349 65.5052C95.0899 65.6452 95.3149 65.7052 95.3599 65.5652C95.7203 64.4464 96.3249 63.4217 97.1299 62.5652C97.2349 62.5002 97.0699 62.3202 96.9649 62.4252Z" fill="#5C2D1D"/>
<path d="M95.8901 61.7199C94.5619 62.8987 93.6178 64.4488 93.1801 66.1699C93.1761 66.1847 93.1751 66.2001 93.1772 66.2152C93.1792 66.2304 93.1842 66.245 93.1918 66.2582C93.1995 66.2715 93.2097 66.2831 93.2218 66.2924C93.234 66.3016 93.2478 66.3085 93.2626 66.3124C93.2773 66.3163 93.2928 66.3173 93.3079 66.3153C93.3231 66.3133 93.3377 66.3083 93.3509 66.3007C93.3641 66.293 93.3757 66.2828 93.385 66.2707C93.3943 66.2585 93.4011 66.2447 93.4051 66.2299C93.8333 64.5488 94.7565 63.0351 96.0551 61.8849C96.1651 61.7799 96.0001 61.6199 95.8901 61.7199Z" fill="#5C2D1D"/>
<path d="M94.7951 61.4751C93.4927 62.5729 92.5157 64.0064 91.9701 65.6201C91.9201 65.7601 92.1501 65.8201 92.1951 65.6801C92.7298 64.1044 93.6861 62.7054 94.9601 61.6351C95.0751 61.5401 94.9101 61.3751 94.7951 61.4751Z" fill="#5C2D1D"/>
<path d="M113.935 47.4452C113.935 47.4452 112.59 55.9452 110.775 57.8702C108.96 59.7952 101 63.3002 101 63.3002C101 63.3002 99.0001 59.8452 96.8901 59.0302C96.8901 59.0302 105.01 54.5302 105.21 53.6852" fill="#68E1FD"/>
<path d="M107.26 41.77C107.125 43.6 106.935 45.42 106.665 47.235C106.435 48.79 106.3 50.565 105.765 52.05C105.17 53.715 102.91 54.705 101.47 55.625C99.9532 56.595 98.4232 57.5417 96.8799 58.465C96.8076 58.5074 96.7552 58.5768 96.7341 58.658C96.713 58.7391 96.7249 58.8252 96.7674 58.8975C96.8098 58.9698 96.8792 59.0222 96.9603 59.0433C97.0414 59.0644 97.1276 59.0524 97.1999 59.01C98.9999 57.9267 100.782 56.8167 102.545 55.68C103.74 54.905 105.545 54.11 106.19 52.755C106.88 51.28 106.985 49.285 107.23 47.695C107.53 45.73 107.73 43.755 107.89 41.775C107.925 41.365 107.29 41.37 107.26 41.77Z" fill="#4C4C4C"/>
<path d="M64.4399 62.3451L52.7349 69.1351L44.1199 64.1601L55.7149 57.3601L64.4399 62.3451Z" fill="white"/>
<path d="M93.5549 90.155L82.6949 83.805V80.605L93.5699 86.88L93.5549 90.155Z" fill="#F4CC25"/>
<path d="M108.35 78.3151V81.5401C108.35 81.5401 93.5301 90.2301 93.5551 90.1551C93.5801 90.0801 93.5551 86.8851 93.5551 86.8851L108.35 78.3151Z" fill="#EDCD32"/>
<path d="M108.35 78.3149L93.5699 86.8799L82.6949 80.6049L97.3349 72.0149L108.35 78.3149Z" fill="#F4DD53"/>
<path d="M85.0548 79.2202L83.4648 78.9452L85.2398 82.0702L85.0548 79.2202Z" fill="#F4CC25"/>
<path d="M85.2399 82.0702L82.6949 80.6052L83.9699 79.7151L85.2399 82.0702Z" fill="#E2B80A"/>
<path opacity="0.56" d="M108.35 79.7802L93.6299 88.2652L82.6949 82.2102" stroke="#F7931E" stroke-miterlimit="10"/>
<path opacity="0.56" d="M108.245 80.895L93.5248 89.38L82.5898 83.32" stroke="#F7931E" stroke-miterlimit="10"/>
<path d="M61.9301 56.7648L54.2001 61.2448L48.5151 57.9598L56.1701 53.4698L61.9301 56.7648Z" fill="#F9D2C0"/>
<path d="M93.5549 86.72L82.6949 80.37V77.17L93.5699 83.445L93.5549 86.72Z" fill="#F2A755"/>
<path d="M108.35 74.8801V78.1051C108.35 78.1051 93.5301 86.7951 93.5551 86.7201C93.5801 86.6451 93.5551 83.4501 93.5551 83.4501L108.35 74.8801Z" fill="#F2A755"/>
<path d="M108.35 74.88L93.5699 83.445L82.6949 77.17L97.3349 68.58L108.35 74.88Z" fill="#F2A755"/>
<path d="M85.0548 75.7853L83.4648 75.5103L85.2398 78.6353L85.0548 75.7853Z" fill="#F7B36F"/>
<path d="M85.2399 78.6352L82.6949 77.1702L83.9699 76.2802L85.2399 78.6352Z" fill="#DB8835"/>
<path opacity="0.56" d="M108.35 76.3448L93.6299 84.8298L82.6949 78.7748" stroke="#F7931E" stroke-miterlimit="10"/>
<path opacity="0.56" d="M108.245 77.455L93.5248 85.94L82.5898 79.885" stroke="#F7931E" stroke-miterlimit="10"/>
<path d="M93.5549 83.7098L82.6949 77.3598V74.1599L93.5699 80.4398L93.5549 83.7098Z" fill="#F4CC25"/>
<path d="M108.35 71.8699V75.0949C108.35 75.0949 93.5301 83.7849 93.5551 83.7099C93.5801 83.6349 93.5551 80.4399 93.5551 80.4399L108.35 71.8699Z" fill="#EDCD32"/>
<path d="M108.35 71.8702L93.5699 80.4402L82.6949 74.1602L97.3349 65.5702L108.35 71.8702Z" fill="#F4DD53"/>
<path d="M85.0548 72.775L83.4648 72.5L85.2398 75.63L85.0548 72.775Z" fill="#F4CC25"/>
<path d="M85.2399 75.63L82.6949 74.16L83.9699 73.27L85.2399 75.63Z" fill="#E2B80A"/>
<path opacity="0.56" d="M108.35 73.335L93.6299 81.82L82.6949 75.765" stroke="#F7931E" stroke-miterlimit="10"/>
<path opacity="0.56" d="M108.245 74.4498L93.5248 82.9348L82.5898 76.8798" stroke="#F7931E" stroke-miterlimit="10"/>
<path d="M152.67 52.845L161.225 48.295L181.75 60.145V104.55L173.295 109.435" fill="#68E1FD"/>
<path opacity="0.22" d="M152.67 52.845L161.225 48.295L181.75 60.145V104.55L173.295 109.435" fill="#4C4C4C"/>
<path d="M173.295 109.435C172.65 109.38 173.295 64.7498 173.295 64.7498L152.67 52.8448V97.8448L173.295 109.435Z" fill="#68E1FD"/>
<path d="M152.67 61.2397L173.195 72.7897L181.75 68.4297" stroke="#F2F2F2" stroke-width="0.25" stroke-miterlimit="10"/>
<path d="M152.67 72.79L173.195 84.34L181.75 79.985" stroke="#F2F2F2" stroke-width="0.25" stroke-miterlimit="10"/>
<path d="M152.67 83.1849L173.195 94.7399L181.75 90.3799" stroke="#F2F2F2" stroke-width="0.25" stroke-miterlimit="10"/>
<path d="M152.67 93.6752L173.195 105.23L181.75 100.87" stroke="#F2F2F2" stroke-width="0.25" stroke-miterlimit="10"/>
<path d="M173.335 64.7198L181.77 60.0698L161.185 48.3248L152.65 52.9198L173.335 64.7198Z" fill="#68E1FD"/>
<path opacity="0.25" d="M173.335 64.7198L181.77 60.0698L161.185 48.3248L152.65 52.9198L173.335 64.7198Z" fill="white"/>
<path d="M169.974 67.6216C170.611 67.3609 170.871 66.5261 170.556 65.757C170.241 64.9878 169.469 64.5756 168.833 64.8363C168.197 65.097 167.937 65.9319 168.252 66.701C168.567 67.4701 169.338 67.8823 169.974 67.6216Z" fill="white"/>
<path d="M155.19 58.8802L166.155 64.9102C166.365 65.0252 166.555 64.7052 166.345 64.5852L155.38 58.5552C155.17 58.4402 154.98 58.7602 155.19 58.8802Z" fill="#F2F2F2"/>
<path d="M169.974 77.7224C170.61 77.4617 170.87 76.6269 170.555 75.8578C170.24 75.0886 169.469 74.6765 168.832 74.9372C168.196 75.1979 167.936 76.0327 168.251 76.8018C168.566 77.571 169.337 77.9831 169.974 77.7224Z" fill="white"/>
<path d="M155.19 68.9998L166.155 74.9998C166.365 75.1148 166.555 74.7948 166.345 74.6748L155.38 68.6448C155.17 68.5298 154.98 68.8498 155.19 68.9698V68.9998Z" fill="#F2F2F2"/>
<path d="M169.972 88.7586C170.609 88.4979 170.869 87.6631 170.554 86.894C170.239 86.1248 169.467 85.7127 168.831 85.9734C168.195 86.234 167.935 87.0689 168.25 87.838C168.565 88.6072 169.336 89.0193 169.972 88.7586Z" fill="white"/>
<path d="M155.19 80L166.155 86.03C166.365 86.145 166.555 85.825 166.345 85.705L155.38 79.675C155.17 79.56 154.98 79.88 155.19 80Z" fill="#F2F2F2"/>
<path d="M169.976 98.781C170.612 98.5203 170.873 97.6855 170.558 96.9164C170.243 96.1472 169.471 95.7351 168.835 95.9958C168.199 96.2564 167.938 97.0913 168.254 97.8604C168.569 98.6295 169.34 99.0417 169.976 98.781Z" fill="white"/>
<path d="M155.19 90.0349L166.155 96.0649C166.365 96.1799 166.555 95.8599 166.345 95.7399L155.38 89.7099C155.17 89.5949 154.98 89.9149 155.19 90.0349Z" fill="#F2F2F2"/>
<path opacity="0.32" d="M170.935 56.9901L165.87 59.9351L162.18 57.5001L167.54 54.1101" fill="url(#paint2_linear)"/>
<path d="M170.955 51.3C170.8 50.96 170.1 50.705 169.265 50.705C168.43 50.705 167.7 50.975 167.565 51.325C166.565 52.7 165.615 54.94 166.825 56.44C167.118 56.7819 167.483 57.0554 167.893 57.2411C168.304 57.4269 168.75 57.5203 169.2 57.515H169.345C169.795 57.5203 170.241 57.4269 170.652 57.2411C171.062 57.0554 171.427 56.7819 171.72 56.44C172.93 54.93 171.945 52.675 170.955 51.3Z" fill="#A6ACED"/>
<path opacity="0.5" d="M169.265 52.185C170.218 52.185 170.99 51.8536 170.99 51.445C170.99 51.0363 170.218 50.705 169.265 50.705C168.312 50.705 167.54 51.0363 167.54 51.445C167.54 51.8536 168.312 52.185 169.265 52.185Z" fill="black"/>
<path d="M171.275 45.1752C170.211 46.979 169.557 48.9951 169.36 51.0802C169.359 48.5643 169.128 46.0539 168.67 43.5802C168.67 43.4902 168.52 43.5302 168.535 43.6152C169.048 46.3795 169.276 49.1892 169.215 52.0002C169.214 52.0113 169.216 52.0224 169.221 52.0325C169.225 52.0427 169.233 52.0514 169.242 52.0579C169.251 52.0645 169.261 52.0686 169.272 52.0698C169.283 52.0711 169.295 52.0695 169.305 52.0652C169.305 52.0652 169.305 52.1052 169.305 52.1252C169.305 52.1437 169.312 52.1615 169.325 52.1746C169.339 52.1878 169.356 52.1952 169.375 52.1952C169.394 52.1952 169.411 52.1878 169.424 52.1746C169.438 52.1615 169.445 52.1437 169.445 52.1252C169.493 49.6986 170.167 47.3255 171.4 45.2352C171.405 45.2191 171.404 45.2017 171.398 45.1862C171.391 45.1706 171.379 45.1581 171.364 45.1508C171.348 45.1435 171.331 45.1419 171.315 45.1464C171.298 45.1509 171.284 45.1611 171.275 45.1752Z" fill="#2C9135"/>
<path d="M170.185 47.4701C170.185 47.4701 171.25 44.0401 173.54 42.7751C173.416 42.953 173.331 43.1545 173.289 43.367C173.246 43.5795 173.249 43.7984 173.295 44.0101C173.51 44.5651 173.85 45.5551 172.77 46.1151C171.69 46.6751 171.07 46.1151 171.16 47.2001C171.25 48.2851 171.66 48.8101 170.99 49.3351C170.32 49.8601 169.705 50.3351 169.49 51.4501C169.475 51.4451 169.735 48.6101 170.185 47.4701Z" fill="#2C9135"/>
<path d="M169.17 47.1103C169.17 47.1103 168.725 41.8403 167.8 40.5103C167.875 41.0252 167.784 41.5505 167.54 42.0103C167.14 42.7703 166.705 43.0353 166.94 44.0103C167.175 44.9853 168.115 44.8053 168.025 45.8003C167.935 46.7953 167.15 46.6053 167.525 47.8603C167.872 48.7148 168.477 49.4401 169.255 49.9353" fill="#2C9135"/>
<defs>
<linearGradient id="paint0_linear" x1="70.8901" y1="106.735" x2="91.7201" y2="70.4952" gradientUnits="userSpaceOnUse">
<stop stop-opacity="0"/>
<stop offset="1" stop-color="#2E3192"/>
</linearGradient>
<linearGradient id="paint1_linear" x1="68.1349" y1="74.5553" x2="81.6649" y2="58.3753" gradientUnits="userSpaceOnUse">
<stop stop-opacity="0"/>
<stop offset="0.99" stop-color="#1A1A1A"/>
</linearGradient>
<linearGradient id="paint2_linear" x1="167.2" y1="56.6301" x2="164.33" y2="59.3701" gradientUnits="userSpaceOnUse">
<stop offset="0.01" stop-color="#A91D5C"/>
<stop offset="1" stop-color="#F15A24"/>
</linearGradient>
</defs>
</svg>
