<svg width="205" height="106" viewBox="0 0 205 106" fill="none" xmlns="http://www.w3.org/2000/svg">
<path d="M24.8859 91.3494L91.2697 129.65C91.7151 129.909 92.2209 130.045 92.7359 130.045C93.2509 130.045 93.7568 129.909 94.2022 129.65L186.875 75.6519C187.316 75.3948 187.683 75.0264 187.937 74.5835C188.192 74.1405 188.326 73.6386 188.326 73.1277C188.326 72.6167 188.192 72.1148 187.937 71.6718C187.683 71.2289 187.316 70.8605 186.875 70.6034L119.111 31.2562C118.666 30.9987 118.162 30.8632 117.648 30.8632C117.134 30.8632 116.629 30.9987 116.184 31.2562L22.9079 85.2602C22.4566 85.5224 22.0837 85.9007 21.8282 86.3559C21.5727 86.8111 21.4438 87.3264 21.455 87.8483C21.4661 88.3701 21.6169 88.8795 21.8916 89.3233C22.1664 89.7671 22.555 90.1292 23.0172 90.3719L24.8859 91.3494Z" fill="#98A3ED"/>
<path d="M91.839 119.438L133.693 96.0415L113.149 84.6392L76.5268 109.002C80.1608 111.21 88.2683 117.132 91.839 119.438Z" fill="url(#paint0_linear)"/>
<path d="M140.496 5.73749C140.496 5.73749 142.669 7.38199 143.445 9.18749C144.222 10.993 144.268 11.0965 145.59 11.982C146.913 12.8675 146.458 13.707 146.044 14.7937C145.63 15.8805 145.268 16.0645 146.228 17.019C147.189 17.9735 148.235 18.6635 147.505 19.6697C146.775 20.676 146.165 20.8542 146.93 21.9697C147.695 23.0852 148.655 23.6602 148.172 24.7067C148.172 24.7067 139.955 26.1672 134.429 24.3847C128.904 22.6022 131.928 19.043 132.06 18.905C132.193 18.767 134.849 11.2805 134.849 11.2805" fill="#994013"/>
<path d="M122.147 98.721L148.252 83.1385L137.747 76.9285L109.9 91.9877C113.534 94.1957 118.577 96.4152 122.147 98.721Z" fill="url(#paint1_linear)"/>
<path d="M146.625 74.45C146.625 74.45 143.491 76.29 142.025 75.439C142.025 75.439 142.842 81.764 141.519 82.523C140.197 83.282 138.201 84.869 138.817 85.2773C139.432 85.6855 139.581 86.1455 141.421 85.6338C142.612 85.2837 143.767 84.8216 144.871 84.2538C144.871 84.2538 145.222 80.8038 145.889 80.9878C146.556 81.1718 146.401 83.949 146.401 83.949L148.189 83.2015L146.625 74.45Z" fill="#F7931E"/>
<path d="M141.105 71.6727C141.105 71.6727 137.971 73.5127 136.505 72.6617C136.505 72.6617 137.322 78.9867 135.999 79.7457C134.677 80.5047 132.681 82.0917 133.297 82.5C133.912 82.9082 134.061 83.3682 135.901 82.8565C137.092 82.5064 138.247 82.0443 139.351 81.4765C139.351 81.4765 139.702 78.0265 140.369 78.2105C141.036 78.3945 140.881 81.1717 140.881 81.1717L142.669 80.4242L141.105 71.6727Z" fill="#F7931E"/>
<path d="M132.009 32.3486C132.009 32.3486 131.784 44.1763 131.911 49.7538C132.037 55.3313 135.056 72.9781 135.056 72.9781C135.056 72.9781 136.103 74.8468 141.036 73.1966L141.726 76.7788C141.726 76.7788 147.919 78.4348 151.415 74.6283C151.415 74.6283 149.253 47.7068 148.902 44.7283C148.206 38.9783 144.302 31.7333 144.302 31.7333" fill="#68E1FD"/>
<path opacity="0.63" d="M137.839 37.8227C137.81 37.3684 137.097 37.3684 137.132 37.8227C137.956 49.6639 139.255 61.4552 141.03 73.1967C141.099 73.6452 141.784 73.4554 141.715 73.0069C139.951 61.3191 138.659 49.591 137.839 37.8227Z" fill="black"/>
<path d="M44.3669 91.9356L76.5209 72.9089L63.9686 60.8339L30.1241 81.6374C33.4476 83.6499 39.7036 89.0204 44.3669 91.9356Z" fill="url(#paint2_linear)"/>
<path d="M76.8085 36.2873V26.6043C76.8085 24.3733 76.5267 21.7915 77.1075 19.6008C77.7917 17.019 81.0462 13.5345 83.9097 15.6103C85.3587 16.6625 85.4162 18.8303 85.4335 20.4575C85.4622 23.9075 85.4335 27.4093 85.4335 30.8823C85.4335 31.111 85.5244 31.3304 85.6861 31.4921C85.8479 31.6539 86.0672 31.7448 86.296 31.7448C86.5247 31.7448 86.7441 31.6539 86.9059 31.4921C87.0676 31.3304 87.1585 31.111 87.1585 30.8823C87.1585 26.8573 87.5897 22.5563 87.0607 18.537C86.4282 13.73 81.7707 11.6888 77.8607 15.0295C75.233 17.2778 75.0835 20.6818 75.0835 23.8673V36.2873C75.0835 36.516 75.1744 36.7354 75.3361 36.8972C75.4979 37.0589 75.7172 37.1498 75.946 37.1498C76.1747 37.1498 76.3941 37.0589 76.5559 36.8972C76.7176 36.7354 76.8085 36.516 76.8085 36.2873Z" fill="#F7931E"/>
<path d="M67.0278 30.8364L91.5056 16.7892L99.4808 20.5382L76.6016 39.4154L67.0278 30.8364Z" fill="#68E1FD"/>
<path opacity="0.63" d="M67.0278 30.8364L91.5056 16.7892L99.4808 20.5382L76.6016 39.4154L67.0278 30.8364Z" fill="black"/>
<path d="M77.234 34.7062C77.947 34.2807 99.5325 20.6474 99.5325 20.6474L106.634 56.4412L76.521 72.9149L77.234 34.7062Z" fill="#68E1FD"/>
<path d="M77.2341 34.7061L67.0106 30.7271L62.1058 67.1936L76.5268 72.9091" fill="#68E1FD"/>
<path opacity="0.22" d="M77.2341 34.7061L67.0106 30.7271L62.1058 67.1936L76.5268 72.9091" fill="black"/>
<path d="M84.479 38.5126V28.8296C84.479 26.5986 84.1973 24.0169 84.778 21.8261C85.4623 19.2444 88.7168 15.7599 91.5803 17.8356C93.0293 18.8879 93.0868 21.0556 93.104 22.6829C93.1328 26.1329 93.104 29.6346 93.104 33.1076C93.104 33.3364 93.1949 33.5557 93.3567 33.7175C93.5184 33.8792 93.7378 33.9701 93.9665 33.9701C94.1953 33.9701 94.4147 33.8792 94.5764 33.7175C94.7382 33.5557 94.829 33.3364 94.829 33.1076C94.829 29.0826 95.2603 24.7816 94.7313 20.7624C94.0988 15.9554 89.4413 13.9141 85.5313 17.2549C82.9035 19.5031 82.754 22.9071 82.754 26.0926V38.5126C82.754 38.7414 82.8449 38.9608 83.0067 39.1225C83.1684 39.2843 83.3878 39.3751 83.6165 39.3751C83.8453 39.3751 84.0647 39.2843 84.2264 39.1225C84.3882 38.9608 84.479 38.7414 84.479 38.5126Z" fill="#F7931E"/>
<path d="M57.9601 82.4021V68.9702L69.9833 62.2542V75.5999L57.9601 82.4021Z" fill="#ECA016"/>
<path d="M57.9601 68.97L46.2646 62.2483C46.2646 62.2483 45.9368 75.7895 46.2646 76.008C46.5923 76.2265 57.9658 82.402 57.9658 82.402L57.9601 68.97Z" fill="#FFB72F"/>
<path d="M46.2645 62.2486L57.96 55.1014L69.989 62.2486L57.96 68.9704L46.2645 62.2486Z" fill="#FFC863"/>
<path d="M50.7149 59.5286L62.8992 66.2101V73.2194L66.4009 71.4541V64.2551L54.2224 57.3839L50.7149 59.5286Z" fill="#FDEDCB"/>
<path d="M187.852 75.9736C187.776 75.9736 187.703 76.0039 187.649 76.0578C187.595 76.1118 187.565 76.1849 187.565 76.2611C187.565 76.3374 187.595 76.4105 187.649 76.4644C187.703 76.5183 187.776 76.5486 187.852 76.5486C187.929 76.5486 188.002 76.5183 188.056 76.4644C188.11 76.4105 188.14 76.3374 188.14 76.2611C188.14 76.1849 188.11 76.1118 188.056 76.0578C188.002 76.0039 187.929 75.9736 187.852 75.9736Z" fill="#8DFCF3"/>
<path d="M135.826 59.3276L111.803 73.9729L98.5779 82.0229C98.0343 82.2708 97.5227 82.5836 97.0542 82.9544C96.3469 83.7249 96.6574 82.4599 97.3589 83.2189C96.2894 82.0689 94.0239 81.2581 92.6784 80.4646L78.5507 72.1501V73.6394L102.448 56.4641L109.445 51.4501C110.636 50.5934 112.591 49.6734 113.516 48.5234C114.212 47.6551 114.091 48.8799 113.217 48.1324C113.632 48.416 114.07 48.6623 114.528 48.8684L121.555 52.8071L135.832 60.8169C136.804 61.3631 137.672 59.8739 136.7 59.3276L114.074 46.6374C113.943 46.5594 113.793 46.5183 113.64 46.5183C113.487 46.5183 113.337 46.5594 113.206 46.6374L77.6824 72.1501C77.5552 72.2283 77.4501 72.3378 77.3772 72.4682C77.3043 72.5985 77.2661 72.7454 77.2661 72.8947C77.2661 73.0441 77.3043 73.191 77.3772 73.3213C77.4501 73.4517 77.5552 73.5612 77.6824 73.6394L96.5539 84.7369C96.6857 84.8136 96.8355 84.8541 96.9881 84.8541C97.1406 84.8541 97.2904 84.8136 97.4222 84.7369L136.7 60.7996C137.643 60.2419 136.781 58.7469 135.826 59.3276Z" fill="#42210B"/>
<path d="M96.9393 83.3854L97.7501 100.819" stroke="#42210B" stroke-miterlimit="10"/>
<path d="M78.154 73.6507L80.1665 85.3175C80.5632 87.6175 80.2872 91.562 82.409 92.896C86.3995 95.4087 90.6717 97.542 94.783 99.8535C95.6742 100.354 96.9105 101.429 97.98 101.366C98.555 101.331 99.2968 100.791 99.7798 100.572L126.052 88.894L131.192 86.594C131.767 86.341 132.825 86.0995 133.279 85.6682C133.895 85.0932 133.854 84.11 133.981 83.2935L135.016 76.8362C135.832 71.7475 136.586 66.6415 137.46 61.5585C137.713 60.098 138.035 58.6835 138.385 57.2172C138.736 55.751 138.385 56.2742 139.357 55.1702L141.594 52.6575C141.686 52.5633 141.755 52.4496 141.797 52.325C141.838 52.2003 141.851 52.0678 141.835 51.9374C141.818 51.807 141.772 51.6819 141.701 51.5717C141.629 51.4614 141.534 51.3687 141.421 51.3005L129.95 45.4527L122.314 41.5427C121.394 41.0712 119.865 39.8177 118.795 39.7602C117.542 39.6625 114.621 41.6635 113.81 42.549C112.827 43.6242 112.901 45.9645 112.763 47.402C112.349 51.5707 112.257 55.8027 112.01 59.9887L111.119 74.8755C111.05 75.9852 112.775 75.9795 112.844 74.8755L114.425 48.6957C114.511 47.2237 114.741 46.3957 114.885 44.7627C114.885 44.5212 115.196 43.3367 114.885 43.8255C114.575 44.3142 115.46 43.5437 115.725 43.3885C116.702 42.7732 118.025 42.2385 118.858 41.4277C118.421 41.8417 117.846 40.9907 118.858 41.6922C119.579 42.126 120.328 42.5102 121.101 42.8422L128.087 46.4187L140.559 52.807L140.386 51.45C139.38 52.6 137.851 53.75 137.149 55.107C136.448 56.464 136.252 58.6892 135.947 60.282C135.372 63.3237 134.958 66.4172 134.47 69.482L132.25 83.1555C132.199 83.6266 132.124 84.0949 132.026 84.5585C131.974 84.7597 132.768 84.087 132.095 84.3285C131.031 84.708 130.008 85.26 128.978 85.7142L102.925 97.312L98.6068 99.2325C98.2486 99.3297 97.9073 99.4809 97.5947 99.681C97.2095 100.095 98.2042 100.043 97.9627 99.6522C97.3532 98.6402 94.3402 97.6167 93.3627 97.0475L86.6122 93.2525L83.7085 91.6195C83.4382 91.4642 83.1335 91.3205 82.892 91.1595C82.4147 90.8777 82.9552 91.2515 83.03 91.4757C82.5125 89.9175 82.455 88.0257 82.1617 86.4387L79.8617 73.2137C79.672 72.1212 78.0102 72.587 78.2 73.6737L78.154 73.6507Z" fill="#42210B"/>
<path d="M119.979 39.7202C119.979 39.7202 117.881 40.4332 118.657 42.9057L135.7 51.1684C135.7 51.1684 138.408 51.0649 138.443 48.4947L119.979 39.7202Z" fill="#F8D55F"/>
<path d="M84.3698 107.283C85.3479 107.283 86.1408 106.443 86.1408 105.408C86.1408 104.373 85.3479 103.534 84.3698 103.534C83.3917 103.534 82.5988 104.373 82.5988 105.408C82.5988 106.443 83.3917 107.283 84.3698 107.283Z" fill="#42210B"/>
<path d="M131.917 97.9156C132.895 97.9156 133.688 97.0764 133.688 96.0411C133.688 95.0059 132.895 94.1666 131.917 94.1666C130.938 94.1666 130.146 95.0059 130.146 96.0411C130.146 97.0764 130.938 97.9156 131.917 97.9156Z" fill="#42210B"/>
<path d="M83.8926 76.3071L85.7096 93.7698" stroke="#42210B" stroke-miterlimit="10"/>
<path d="M133.687 78.9579C133.687 78.9579 97.4624 95.3281 97.4969 95.5351L81.1094 85.7601L112.412 67.6879L133.687 78.9464" stroke="#42210B" stroke-miterlimit="10"/>
<path d="M104.167 80.4357L104.788 97.4097" stroke="#42210B" stroke-miterlimit="10"/>
<path d="M111.159 76.3071L111.544 94.4081" stroke="#42210B" stroke-miterlimit="10"/>
<path d="M120.106 70.5629L118.945 91.1191" stroke="#42210B" stroke-miterlimit="10"/>
<path d="M128.783 65.2559L126.356 87.8246" stroke="#42210B" stroke-miterlimit="10"/>
<path d="M135.125 69.919L113.177 58.5397C113.177 58.5397 79.925 78.8545 79.925 78.958L97.5602 89.308L134.993 71.575" stroke="#42210B" stroke-miterlimit="10"/>
<path d="M82.1446 91.7631L111.987 74.8696L132.848 84.9378L132.492 92.5681L97.7501 109.002L84.6746 102.355L92.3393 97.4958L90.9478 80.4586" stroke="#42210B" stroke-miterlimit="10"/>
<path d="M121.273 51.6626C121.216 52.1686 118.484 78.0033 118.484 78.0033" stroke="#42210B" stroke-miterlimit="10"/>
<path d="M129.846 56.4754L126.678 81.9594" stroke="#42210B" stroke-miterlimit="10"/>
<path d="M105.938 53.6639C105.938 54.0549 106.45 78.0036 106.45 78.0036" stroke="#42210B" stroke-miterlimit="10"/>
<path d="M98.7274 58.1029C98.8712 57.9994 99.9464 82.2126 99.9464 82.2126" stroke="#42210B" stroke-miterlimit="10"/>
<path d="M91.0571 63.6111L92.6211 81.9593" stroke="#42210B" stroke-miterlimit="10"/>
<path d="M84.8009 68.125C84.5652 68.2918 85.9509 77.5493 85.9509 77.5493" stroke="#42210B" stroke-miterlimit="10"/>
<path d="M95.5766 65.3191V59.7244C95.5766 58.4364 95.4156 56.9414 95.7491 55.6994C96.1458 54.2044 98.0491 52.1919 99.6763 53.3994C100.516 54.0089 100.545 55.2624 100.556 56.1996C100.556 58.2064 100.556 60.2246 100.556 62.2256C100.569 62.3483 100.627 62.4618 100.719 62.5442C100.811 62.6267 100.93 62.6723 101.053 62.6723C101.177 62.6723 101.296 62.6267 101.388 62.5442C101.479 62.4618 101.538 62.3483 101.551 62.2256C101.551 59.8854 101.798 57.4129 101.493 55.0899C101.125 52.3126 98.4343 51.1339 96.1803 53.0601C94.6623 54.3596 94.576 56.3261 94.576 58.1661V65.3421C94.5893 65.4648 94.6474 65.5783 94.7392 65.6607C94.831 65.7432 94.95 65.7888 95.0734 65.7888C95.1968 65.7888 95.3159 65.7432 95.4077 65.6607C95.4995 65.5783 95.5576 65.4648 95.5708 65.3421L95.5766 65.3191Z" fill="#F7931E"/>
<path d="M89.9186 62.1682L104.069 54.0492L108.681 56.2169L95.4558 67.1247L89.9186 62.1682Z" fill="#68E1FD"/>
<path opacity="0.63" d="M89.9186 62.1682L104.069 54.0492L108.681 56.2169L95.4558 67.1247L89.9186 62.1682Z" fill="black"/>
<path d="M95.8238 64.4046C96.2321 64.1573 108.71 56.2798 108.71 56.2798L112.815 76.9798L95.4156 86.5018L95.8238 64.4046Z" fill="#68E1FD"/>
<path d="M95.8239 64.4046L89.9129 62.1046L87.0781 83.1783L95.4099 86.4846" fill="#68E1FD"/>
<path opacity="0.22" d="M95.8239 64.4046L89.9129 62.1046L87.0781 83.1783L95.4099 86.4846" fill="black"/>
<path d="M100.01 66.6071V61.0123C100.01 59.7243 99.8488 58.2293 100.182 56.9873C100.579 55.4923 102.482 53.4798 104.11 54.6873C104.949 55.2968 104.978 56.5503 104.989 57.4876C104.989 59.4943 104.989 61.5126 104.989 63.5136C105.003 63.6363 105.061 63.7498 105.152 63.8322C105.244 63.9147 105.363 63.9603 105.487 63.9603C105.61 63.9603 105.729 63.9147 105.821 63.8322C105.913 63.7498 105.971 63.6363 105.984 63.5136C105.984 61.1733 106.231 58.7008 105.927 56.3778C105.559 53.6006 102.868 52.4218 100.614 54.3481C99.0956 55.6476 99.0093 57.6141 99.0093 59.4541V66.6301C99.0225 66.7528 99.0806 66.8663 99.1725 66.9487C99.2643 67.0312 99.3833 67.0768 99.5067 67.0768C99.6301 67.0768 99.7492 67.0312 99.841 66.9487C99.9328 66.8663 99.9909 66.7528 100.004 66.6301L100.01 66.6071Z" fill="#F7931E"/>
<path d="M101.022 78.1529L128.622 62.2196V77.2271C128.622 77.2271 101.022 93.6951 101.022 93.1603V78.1529Z" fill="#E55A5A"/>
<path d="M101.022 78.1532L95.9732 75.8992V90.9067L101.022 93.1549V78.1532Z" fill="#C13030"/>
<path d="M95.9732 75.9161L101.022 78.9521L128.639 62.2196L124.022 59.6148L95.9732 75.9161Z" fill="#FF9C9C"/>
<path d="M136.706 59.3273L136.223 59.0571C136.178 59.0965 136.13 59.133 136.08 59.1663C135.55 59.4885 135.001 59.7766 134.435 60.0288L134.567 60.1036L111.815 73.9726L98.5896 82.0226C98.0493 82.2688 97.5399 82.5776 97.0716 82.9426C95.9216 81.9306 93.9263 81.2176 92.6843 80.4643L79.7008 72.8398H79.7296C79.1891 72.5581 78.6658 72.2188 78.1253 71.8911L77.6998 72.1958C77.5726 72.274 77.4675 72.3835 77.3946 72.5139C77.3217 72.6442 77.2834 72.7911 77.2834 72.9404C77.2834 73.0898 77.3217 73.2367 77.3946 73.367C77.4675 73.4974 77.5726 73.6069 77.6998 73.6851L96.5713 84.7826C96.7031 84.8593 96.8529 84.8998 97.0055 84.8998C97.158 84.8998 97.3078 84.8593 97.4396 84.7826L136.718 60.8453C136.83 60.7819 136.925 60.6923 136.995 60.5842C137.065 60.4761 137.108 60.3526 137.12 60.2243C137.167 60.05 137.152 59.8647 137.076 59.7007C137 59.5368 136.87 59.4046 136.706 59.3273Z" fill="#42210B"/>
<path d="M113.229 48.1321C113.295 48.1859 113.364 48.2358 113.436 48.2816C113.363 48.2379 113.293 48.1879 113.229 48.1321Z" fill="#42210B"/>
<path d="M113.66 48.3794C114.092 47.9424 114.086 48.4771 113.66 48.3794V48.3794Z" fill="#42210B"/>
<path d="M97.0313 82.9943C96.4563 83.5693 96.5943 82.862 97.0313 82.9943V82.9943Z" fill="#42210B"/>
<path d="M97.2324 83.075C97.2818 83.1134 97.3279 83.1557 97.3704 83.2015C97.3244 83.1843 97.2727 83.144 97.2324 83.075Z" fill="#42210B"/>
<path d="M97.2333 83.3766L96.6589 83.4031L97.4657 100.836L98.0401 100.809L97.2333 83.3766Z" fill="#42210B"/>
<path d="M141.45 51.3235L129.95 45.4527L122.314 41.5427C121.394 41.0712 119.864 39.8177 118.795 39.7602C117.541 39.6625 114.62 41.6635 113.81 42.549C112.999 43.4345 112.918 45.0215 112.832 46.3785C113.442 46.3785 114.051 46.4532 114.661 46.4935C114.735 45.9875 114.81 45.4527 114.868 44.7685C114.868 44.6247 114.988 44.1417 115.011 43.883C115.23 43.7507 115.586 43.4805 115.719 43.3942C116.744 42.8612 117.732 42.2579 118.674 41.5887L118.835 41.698C119.556 42.1317 120.305 42.516 121.078 42.848L128.064 46.4245L139.564 52.301C138.627 53.1142 137.814 54.0595 137.149 55.107C136.407 56.5215 136.252 58.6892 135.947 60.282C135.372 63.3237 134.958 66.4172 134.469 69.482L132.25 83.1555C132.187 83.5407 132.152 83.949 132.072 84.3342C131.019 84.7137 129.996 85.26 128.972 85.7142L102.925 97.312L98.6068 99.2325C98.4285 99.313 98.1065 99.3992 97.8593 99.5142C97.0715 98.5482 94.2943 97.5937 93.334 97.0532L86.5835 93.2582L83.6798 91.6252L82.915 91.194C82.478 89.699 82.3918 87.9625 82.133 86.4502L79.833 73.2252C79.6433 72.1327 77.9815 72.5985 78.1713 73.6852C78.844 77.5722 79.7583 81.4305 80.1838 85.352C80.4425 87.7267 80.3045 91.5965 82.4263 92.9305C86.4168 95.4432 90.689 97.5765 94.8002 99.888C95.6915 100.388 96.9277 101.463 97.9972 101.4C98.5722 101.366 99.314 100.825 99.797 100.607L126.069 88.9285L131.209 86.6285C131.784 86.3755 132.842 86.134 133.296 85.7027C133.912 85.1277 133.871 84.1445 133.998 83.328L135.033 76.8707C135.849 71.782 136.603 66.676 137.477 61.593C137.73 60.1325 138.052 58.718 138.402 57.2517C138.753 55.7855 138.402 56.3087 139.374 55.2047L141.611 52.692C141.705 52.5986 141.777 52.4849 141.821 52.3595C141.865 52.2341 141.88 52.1004 141.864 51.9684C141.849 51.8365 141.803 51.7099 141.732 51.5981C141.66 51.4863 141.564 51.3924 141.45 51.3235ZM118.651 41.5485C118.335 41.583 118.116 41.2207 118.651 41.5485V41.5485Z" fill="#42210B"/>
<path d="M119.991 39.7202C119.991 39.7202 117.892 40.4332 118.668 42.9057L135.7 51.1684C135.7 51.1684 138.408 51.0649 138.443 48.4947L119.991 39.7202Z" fill="#F8D55F"/>
<path d="M84.3812 107.283C85.3593 107.283 86.1522 106.443 86.1522 105.408C86.1522 104.373 85.3593 103.534 84.3812 103.534C83.4031 103.534 82.6102 104.373 82.6102 105.408C82.6102 106.443 83.4031 107.283 84.3812 107.283Z" fill="#42210B"/>
<path d="M131.928 97.9156C132.906 97.9156 133.699 97.0764 133.699 96.0411C133.699 95.0059 132.906 94.1666 131.928 94.1666C130.95 94.1666 130.157 95.0059 130.157 96.0411C130.157 97.0764 130.95 97.9156 131.928 97.9156Z" fill="#42210B"/>
<path d="M84.1956 76.2712L83.6237 76.3308L85.4434 93.791L86.0153 93.7314L84.1956 76.2712Z" fill="#42210B"/>
<path d="M134.354 78.981L118.829 70.7643L118.254 71.0978L133.066 78.9408C130.996 79.878 123.251 83.3855 115.5 86.9103C102.022 93.0455 98.4859 94.6728 97.5659 95.219L81.6902 85.7775L91.2697 80.246L90.6947 79.9068L80.5574 85.7718L97.8074 96.0585V95.6963C99.7337 94.6843 121.957 84.5815 133.82 79.2283L134.354 78.981Z" fill="#42210B"/>
<path d="M104.461 80.4323L103.886 80.4534L104.509 97.4275L105.084 97.4064L104.461 80.4323Z" fill="#42210B"/>
<path d="M111.458 76.3002L110.883 76.3124L111.268 94.4094L111.843 94.3971L111.458 76.3002Z" fill="#42210B"/>
<path d="M119.839 70.5551L118.672 91.1069L119.246 91.1395L120.413 70.5876L119.839 70.5551Z" fill="#42210B"/>
<path d="M128.493 65.2178L126.077 87.7899L126.649 87.8511L129.065 65.279L128.493 65.2178Z" fill="#42210B"/>
<path d="M127.518 65.6411L126.943 65.9804L135.033 70.1721L135.297 69.6604L127.518 65.6411Z" fill="#42210B"/>
<path d="M97.6005 88.9862L80.5 78.9467C81.1325 78.5442 82.5528 77.6644 84.4905 76.4684C84.318 76.3534 84.1455 76.2269 83.9788 76.1062C79.6433 78.7857 79.649 78.8489 79.6778 79.0157V79.1479L97.428 89.5669L97.5603 89.6417L135.114 71.8167L134.866 71.2992L97.6005 88.9862Z" fill="#42210B"/>
<path d="M97.7501 109.318L84.0996 102.384L92.0403 97.3465L91.1951 86.9965L82.2941 92.0335L82.0123 91.5333L91.1491 86.3583L90.6718 80.499L91.2468 80.453L91.7011 86.0478L111.987 74.5478L133.159 84.7655L132.785 92.758L97.7501 109.318ZM85.2611 102.326L97.7616 108.651L132.25 92.3843L132.589 85.1163L112.01 75.1918L91.7528 86.6573L92.6498 97.6398L85.2611 102.326Z" fill="#42210B"/>
<path d="M144.21 28.5075C144.089 26.104 146.09 18.3185 144.296 16.4958C143.899 16.2945 141.122 14.144 140.72 13.9543C139.373 13.2644 137.829 13.0612 136.35 13.3793C134.637 13.7531 133.012 14.4498 131.56 15.432C128.282 17.5423 130.588 27.3748 132.008 32.3543C135.74 34.384 140.668 33.993 144.296 31.7793C144.21 28.5075 144.371 31.7505 144.21 28.5075Z" fill="#F7931E"/>
<path d="M133.664 8.68127C133.544 9.12977 133.452 14.3508 136.752 14.6843C140.053 15.0178 140.605 10.8318 140.375 8.68127C140.145 6.53077 134.757 4.63327 133.664 8.68127Z" fill="#FFC358"/>
<path d="M133.618 10.7919C133.699 10.9644 135.274 8.92313 136.022 7.91688C136.022 7.91688 137.022 12.4594 140.047 11.3324C139.666 12.1042 139.373 12.9162 139.173 13.7531C139.173 13.7531 141.318 12.8619 141.525 9.49238C141.732 6.12288 140.041 4.74863 137.753 4.61063C136.2 4.53013 131.238 5.76063 133.618 10.7919Z" fill="#994013"/>
<path d="M140.426 11.2001C140.341 11.0852 140.216 11.0063 140.076 10.9786C139.936 10.951 139.79 10.9766 139.667 11.0506C139.341 11.2948 139.115 11.6511 139.035 12.0511C139.026 12.0838 139.024 12.1184 139.031 12.1517C139.038 12.1851 139.053 12.2163 139.074 12.2428C139.096 12.2693 139.123 12.2902 139.154 12.3039C139.185 12.3176 139.219 12.3235 139.253 12.3213L139.138 12.4823C139.119 12.506 139.106 12.5334 139.098 12.5628C138.903 12.7296 139.098 13.0746 139.345 12.9251C139.675 12.7165 139.962 12.4473 140.191 12.1316C140.363 11.9073 140.622 11.5278 140.426 11.2001Z" fill="#FFC358"/>
<path d="M121.751 43.2446C122.515 42.0946 123.476 41.0768 124.361 40.0016C124.833 39.4266 125.298 38.8516 125.781 38.2766C125.281 37.2818 123.43 38.2018 122.722 37.0173C121.642 37.6356 120.66 38.4107 119.807 39.3173C119.73 39.3886 119.679 39.4839 119.663 39.5876C119.195 39.8386 118.815 40.2255 118.571 40.6973C118.543 40.7807 118.537 40.8701 118.555 40.9563C118.572 41.0426 118.612 41.1227 118.67 41.1886C118.729 41.2546 118.803 41.3039 118.887 41.3317C118.97 41.3595 119.06 41.3648 119.146 41.3471L119.307 41.3068C119.175 41.4621 119.054 41.6231 118.933 41.7898C118.759 41.9747 118.622 42.1914 118.531 42.4281C118.509 42.4949 118.502 42.5656 118.51 42.6354C118.518 42.7053 118.54 42.7726 118.576 42.833C118.612 42.8934 118.66 42.9454 118.718 42.9857C118.776 43.0259 118.841 43.0534 118.91 43.0663C118.617 43.4861 118.485 43.9576 119.18 44.1301H119.226C119.327 44.1668 119.437 44.171 119.54 44.1421C119.643 44.1132 119.734 44.0527 119.801 43.9691C119.934 43.8081 120.083 43.6643 120.215 43.5033C120.217 43.6283 120.262 43.7487 120.343 43.8441C120.424 43.9395 120.535 44.004 120.658 44.0266C120.697 44.0639 120.744 44.0926 120.795 44.1109C120.846 44.1292 120.9 44.1367 120.954 44.1329C121.009 44.1291 121.061 44.1141 121.109 44.0889C121.157 44.0637 121.199 44.0287 121.233 43.9863L121.613 43.5608C121.646 43.4503 121.692 43.3441 121.751 43.2446Z" fill="#FFC358"/>
<path d="M132.405 39.7542C131.98 40.3292 130.007 44.0092 129.53 44.544L128.242 46.315C128.207 46.3569 128.181 46.4058 128.166 46.4584C128.151 46.511 128.147 46.5662 128.155 46.6204C128.162 46.6746 128.181 46.7266 128.21 46.773C128.239 46.8195 128.277 46.8593 128.323 46.89C128.371 47.0051 128.457 47.1 128.567 47.1587C128.677 47.2174 128.804 47.2362 128.926 47.212C128.8 47.3787 128.685 47.5512 128.558 47.7122C128.495 47.793 128.457 47.891 128.45 47.9935C128.443 48.0961 128.466 48.1985 128.518 48.2872C128.518 48.2872 128.518 48.2872 128.518 48.3275C128.834 48.9715 129.271 48.7415 129.616 48.3677C129.644 48.4329 129.685 48.4916 129.736 48.5396C129.788 48.5877 129.849 48.6241 129.916 48.6465C129.984 48.6688 130.055 48.6765 130.125 48.6691C130.195 48.6617 130.263 48.6393 130.324 48.6035C130.536 48.4637 130.72 48.284 130.864 48.0745C131.008 47.925 131.134 47.7697 131.261 47.6087C131.261 47.6662 131.261 47.718 131.261 47.7755C131.263 47.8626 131.288 47.9476 131.333 48.0222C131.378 48.0968 131.441 48.1583 131.518 48.2008C131.594 48.2432 131.68 48.265 131.767 48.264C131.854 48.263 131.939 48.2393 132.014 48.1952C132.425 47.8585 132.723 47.4055 132.871 46.8957C132.969 46.859 133.052 46.7901 133.107 46.7002C133.733 45.6537 135.637 41.9565 135.924 40.7605C134.682 40.335 133.791 39.714 132.405 39.7542Z" fill="#FFC358"/>
<path d="M130.807 42.825L128.472 43.7508L129.961 44.4638" fill="#FFC358"/>
<path d="M130.807 40.5943C130.807 40.5943 133.682 43.2278 136.252 42.8253C136.252 42.8253 141.967 32.5846 142.928 28.8643C143.888 25.1441 145.067 17.4161 142.928 16.8468C140.789 16.2776 138.328 18.1866 137.753 20.6476C137.178 23.1086 136.493 30.8653 136.493 30.8653L130.807 40.5943Z" fill="#F7931E"/>
<path d="M120.428 36.4311C120.428 36.4311 122.901 39.4269 125.517 39.3809C125.517 39.3809 132.572 30.0141 134.033 26.4606C135.493 22.9071 137.713 15.4091 135.671 14.5581C133.63 13.7071 130.91 15.2596 130.048 17.6171C128.656 21.4351 127.909 25.8856 125.678 29.3241C124.925 30.4741 123.953 31.5264 123.165 32.6534L120.428 36.4311Z" fill="#F7931E"/>
<path d="M124.758 39.5129V42.0486L123.246 41.3299L124.758 39.5129Z" fill="#FFC358"/>
<path d="M132.394 21.8086C132.394 21.7323 132.363 21.6592 132.31 21.6053C132.256 21.5513 132.183 21.5211 132.106 21.5211C132.03 21.5211 131.957 21.5513 131.903 21.6053C131.849 21.6592 131.819 21.7323 131.819 21.8086C131.723 25.1934 131.723 28.5782 131.819 31.9631C131.819 32.3311 132.394 32.3311 132.394 31.9631C132.298 28.5782 132.298 25.1934 132.394 21.8086Z" fill="#CE6D0D"/>
<path d="M141.254 33.1077L144.129 25.8741L144.296 31.7564L141.254 33.1077Z" fill="#CE6D0D"/>
<path d="M138.316 23.5109C137.037 29.4513 134.515 35.0538 130.916 39.9501C130.698 40.2491 131.198 40.5251 131.411 40.2376C135.046 35.2941 137.594 29.6365 138.886 23.6374C138.949 23.2751 138.391 23.1486 138.316 23.5109Z" fill="#CE6D0D"/>
<defs>
<linearGradient id="paint0_linear" x1="101.125" y1="103.879" x2="161.558" y2="67.1765" gradientUnits="userSpaceOnUse">
<stop stop-opacity="0"/>
<stop offset="1" stop-color="#2E3192"/>
</linearGradient>
<linearGradient id="paint1_linear" x1="124.545" y1="91.269" x2="145.745" y2="73.9097" gradientUnits="userSpaceOnUse">
<stop stop-color="#808080" stop-opacity="0"/>
<stop offset="1" stop-color="#2E3192"/>
</linearGradient>
<linearGradient id="paint2_linear" x1="3714.95" y1="5723.84" x2="5982.94" y2="2886.03" gradientUnits="userSpaceOnUse">
<stop stop-opacity="0"/>
<stop offset="1" stop-color="#2E3192"/>
</linearGradient>
</defs>
</svg>
